<svg width="101" height="32" viewBox="0 0 101 32" fill="none" xmlns="http://www.w3.org/2000/svg">
<rect width="32" height="32" rx="16" transform="matrix(1 0 0 -1 0 32)" fill="#D40C1A"/>
<mask id="mask0_28573_219" style="mask-type:luminance" maskUnits="userSpaceOnUse" x="4" y="9" width="24" height="14">
<path d="M4 9.37423H28V22.6258H4V9.37423Z" fill="white"/>
</mask>
<g mask="url(#mask0_28573_219)">
<path fill-rule="evenodd" clip-rule="evenodd" d="M10.632 9.37423C12.4764 9.37423 14.1435 10.1273 15.3452 11.342L11.8421 14.8459C10.6121 14.0153 8.62206 14.2899 7.48479 17.283C7.42344 17.444 7.36209 17.6051 7.30074 17.7661C7.03617 18.4624 7.17727 19.1779 7.67804 19.6787C8.17881 20.1787 8.8943 20.3198 9.58985 20.0552L10.0737 19.8719C13.0668 18.7347 13.3414 16.7446 12.5109 15.5146L15.9625 12.0629C17.1412 10.8842 17.9004 10.0982 19.5484 9.62806C20.1274 9.46319 20.7386 9.37423 21.3705 9.37423C25.0323 9.37423 28.0001 12.3428 28.0001 16.0046C28.0001 19.6664 25.0323 22.6342 21.3705 22.6342C19.553 22.6342 17.9066 21.9026 16.7087 20.7186L19.9595 17.4686C20.2356 17.6304 20.55 17.7009 20.8905 17.6756C21.379 17.6388 21.7854 17.4141 22.0753 17.0192L24.9441 13.1219L24.7877 12.9655L21.836 15.9164C21.7869 15.9663 21.7056 15.9663 21.6566 15.9164C21.6075 15.8673 21.6075 15.786 21.6566 15.737L24.6083 12.7853L24.3805 12.5583L21.4296 15.51C21.3797 15.559 21.2992 15.559 21.2494 15.51C21.2003 15.4601 21.2003 15.3796 21.2494 15.3298L24.201 12.3781L23.9733 12.1511L21.0224 15.1028C20.9725 15.1518 20.892 15.1518 20.8421 15.1028C20.7931 15.0529 20.7931 14.9724 20.8421 14.9225L23.7938 11.9716L23.6458 11.8236C23.5891 11.8558 23.5331 11.8919 23.4794 11.931L19.7402 14.6833C19.3452 14.9739 19.1205 15.3796 19.0837 15.8681C19.0576 16.2086 19.1282 16.523 19.2908 16.7998L16.0845 20.0061C15.0599 20.9532 14.3153 21.6917 13.0162 22.1925C12.277 22.4778 11.4725 22.6342 10.632 22.6342C6.97098 22.6342 4.00243 19.6664 4.00243 16.0046C4.00243 12.3428 6.97098 9.37423 10.632 9.37423Z" fill="#FAF9F1"/>
</g>
<path d="M45.4347 23V8.45455H51.0028C52.054 8.45455 52.9276 8.62026 53.6236 8.9517C54.3243 9.27841 54.8475 9.72585 55.1932 10.294C55.5436 10.8622 55.7188 11.5062 55.7188 12.2259C55.7188 12.8177 55.6051 13.3243 55.3778 13.7457C55.1506 14.1624 54.8452 14.5009 54.4616 14.7614C54.0781 15.0218 53.6496 15.2088 53.1761 15.3224V15.4645C53.6922 15.4929 54.187 15.6515 54.6605 15.9403C55.1387 16.2244 55.5294 16.6269 55.8324 17.1477C56.1354 17.6686 56.2869 18.2983 56.2869 19.0369C56.2869 19.7898 56.1046 20.4669 55.7401 21.0682C55.3755 21.6648 54.8262 22.1359 54.0923 22.4815C53.3584 22.8272 52.4351 23 51.3224 23H45.4347ZM48.0696 20.7983H50.9034C51.8598 20.7983 52.5488 20.616 52.9702 20.2514C53.3963 19.8821 53.6094 19.4086 53.6094 18.831C53.6094 18.4001 53.5028 18.0118 53.2898 17.6662C53.0767 17.3158 52.7737 17.0412 52.3807 16.8423C51.9877 16.6387 51.5189 16.5369 50.9744 16.5369H48.0696V20.7983ZM48.0696 14.6406H50.6761C51.1307 14.6406 51.5402 14.5578 51.9048 14.392C52.2694 14.2216 52.5559 13.9825 52.7642 13.6747C52.9773 13.3622 53.0838 12.9929 53.0838 12.5668C53.0838 12.0033 52.8849 11.5393 52.4872 11.1747C52.0942 10.8101 51.5095 10.6278 50.733 10.6278H48.0696V14.6406ZM58.4656 23V12.0909H61.0366V23H58.4656ZM59.7582 10.5426C59.351 10.5426 59.0006 10.4077 58.707 10.1378C58.4135 9.86316 58.2667 9.53409 58.2667 9.15057C58.2667 8.76231 58.4135 8.43324 58.707 8.16335C59.0006 7.88873 59.351 7.75142 59.7582 7.75142C60.1701 7.75142 60.5205 7.88873 60.8093 8.16335C61.1029 8.43324 61.2496 8.76231 61.2496 9.15057C61.2496 9.53409 61.1029 9.86316 60.8093 10.1378C60.5205 10.4077 60.1701 10.5426 59.7582 10.5426ZM72.3026 14.9744L69.9588 15.2301C69.8925 14.9934 69.7765 14.7708 69.6108 14.5625C69.4498 14.3542 69.232 14.1861 68.9574 14.0582C68.6828 13.9304 68.3466 13.8665 67.9489 13.8665C67.4138 13.8665 66.964 13.9825 66.5994 14.2145C66.2396 14.4465 66.062 14.7472 66.0668 15.1165C66.062 15.4337 66.178 15.6918 66.4148 15.8906C66.6563 16.0895 67.054 16.2528 67.608 16.3807L69.4688 16.7784C70.5009 17.0009 71.268 17.3537 71.7699 17.8366C72.2765 18.3196 72.5322 18.9517 72.5369 19.733C72.5322 20.4195 72.331 21.0256 71.9332 21.5511C71.5402 22.072 70.9934 22.4792 70.2926 22.7727C69.5919 23.0663 68.7869 23.2131 67.8778 23.2131C66.5426 23.2131 65.4678 22.9337 64.6534 22.375C63.839 21.8116 63.3537 21.0279 63.1974 20.0241L65.7045 19.7827C65.8182 20.2751 66.0597 20.6468 66.429 20.8977C66.7983 21.1487 67.2789 21.2741 67.8707 21.2741C68.4815 21.2741 68.9716 21.1487 69.3409 20.8977C69.715 20.6468 69.902 20.3366 69.902 19.9673C69.902 19.6548 69.7813 19.3968 69.5398 19.1932C69.303 18.9896 68.9337 18.8333 68.4318 18.7244L66.571 18.3338C65.5246 18.116 64.7505 17.7491 64.2486 17.233C63.7467 16.7121 63.4981 16.054 63.5028 15.2585C63.4981 14.5862 63.6804 14.0038 64.0497 13.5114C64.4238 13.0142 64.9422 12.6307 65.6051 12.3608C66.2727 12.0862 67.0421 11.9489 67.9134 11.9489C69.1918 11.9489 70.1979 12.2211 70.9318 12.7656C71.6705 13.3101 72.1274 14.0464 72.3026 14.9744ZM80.1044 12.0909V14.0795H73.8331V12.0909H80.1044ZM75.3814 9.47727H77.9524V19.7188C77.9524 20.0644 78.0045 20.3295 78.1087 20.5142C78.2176 20.6941 78.3596 20.8172 78.5348 20.8835C78.71 20.9498 78.9041 20.983 79.1172 20.983C79.2782 20.983 79.425 20.9711 79.5575 20.9474C79.6948 20.9238 79.799 20.9025 79.87 20.8835L80.3033 22.8935C80.166 22.9408 79.9695 22.9929 79.7138 23.0497C79.4628 23.1065 79.1551 23.1397 78.7905 23.1491C78.1465 23.1681 77.5665 23.071 77.0504 22.858C76.5343 22.6402 76.1248 22.304 75.8217 21.8494C75.5234 21.3949 75.3767 20.8267 75.3814 20.1449V9.47727ZM82.2546 23V12.0909H84.7475V13.9091H84.8612C85.06 13.2794 85.4009 12.794 85.8839 12.4531C86.3716 12.1075 86.9279 11.9347 87.5529 11.9347C87.695 11.9347 87.8536 11.9418 88.0288 11.956C88.2087 11.9654 88.3578 11.982 88.4762 12.0057V14.3707C88.3673 14.3329 88.1945 14.2997 87.9577 14.2713C87.7257 14.2382 87.5008 14.2216 87.283 14.2216C86.8143 14.2216 86.3929 14.3234 86.0188 14.527C85.6495 14.7259 85.3583 15.0028 85.1452 15.358C84.9322 15.7131 84.8256 16.1226 84.8256 16.5866V23H82.2546ZM94.4936 23.2131C93.4283 23.2131 92.505 22.9787 91.7237 22.5099C90.9425 22.0412 90.3364 21.3854 89.9055 20.5426C89.4794 19.6998 89.2663 18.715 89.2663 17.5881C89.2663 16.4612 89.4794 15.474 89.9055 14.6264C90.3364 13.7789 90.9425 13.1207 91.7237 12.652C92.505 12.1832 93.4283 11.9489 94.4936 11.9489C95.5589 11.9489 96.4822 12.1832 97.2635 12.652C98.0447 13.1207 98.6484 13.7789 99.0746 14.6264C99.5054 15.474 99.7209 16.4612 99.7209 17.5881C99.7209 18.715 99.5054 19.6998 99.0746 20.5426C98.6484 21.3854 98.0447 22.0412 97.2635 22.5099C96.4822 22.9787 95.5589 23.2131 94.4936 23.2131ZM94.5078 21.1534C95.0855 21.1534 95.5684 20.9948 95.9567 20.6776C96.3449 20.3556 96.6338 19.9247 96.8232 19.3849C97.0173 18.8452 97.1143 18.2438 97.1143 17.581C97.1143 16.9134 97.0173 16.3097 96.8232 15.7699C96.6338 15.2254 96.3449 14.7921 95.9567 14.4702C95.5684 14.1482 95.0855 13.9872 94.5078 13.9872C93.916 13.9872 93.4235 14.1482 93.0305 14.4702C92.6423 14.7921 92.3511 15.2254 92.157 15.7699C91.9676 16.3097 91.8729 16.9134 91.8729 17.581C91.8729 18.2438 91.9676 18.8452 92.157 19.3849C92.3511 19.9247 92.6423 20.3556 93.0305 20.6776C93.4235 20.9948 93.916 21.1534 94.5078 21.1534Z" fill="#D40C1A"/>
</svg>
